# AST/ASF file generated using VICON BodyLanguage
# -----------------------------------------------
:version 1.10
:name VICON
:units
  mass 1.0
  length 0.45
  angle deg
:documentation
   .ast/.asf automatically generated from VICON data using
   VICON BodyBuilder and BodyLanguage model FoxedUp or BRILLIANT.MOD
:root
   order TX TY TZ RX RY RZ
   axis XYZ
   position 0 0 0  
   orientation 0 0 0 
:bonedata
  begin
     id 1 
     name lhipjoint
     direction 0.710188 -0.616876 0.339259 
     length 2.5669 
     axis 0 0 0  XYZ
  end
  begin
     id 2 
     name lfemur
     direction 0.34202 -0.939693 0  
     length 7.12796  
     axis 0 0 20  XYZ
    dof rx ry rz
    limits (-160.0 20.0)
           (-70.0 70.0)
           (-60.0 70.0)
  end
  begin
     id 3 
     name ltibia
     direction 0.34202 -0.939693 0   
     length 7.58108   
     axis 0 0 20   XYZ
    dof rx
    limits (-10.0 170.0)
  end
  begin
     id 4 
     name lfoot
     direction 0.0669471 -0.183936 0.980656   
     length 2.17365   
     axis -90 7.62852e-016 20   XYZ
    dof rx rz
    limits (-45.0 90.0)
           (-70.0 20.0)
  end
  begin
     id 5 
     name ltoes
     direction 1.53508e-011 -4.21705e-011 1   
     length 1.09427   
     axis -90 7.62852e-016 20   XYZ
    dof rx
    limits (-90.0 20.0)
  end
  begin
     id 6 
     name rhipjoint
     direction -0.700191 -0.625589 0.34405   
     length 2.53115  
     axis 0 0 0  XYZ 
  end
  begin
     id 7 
     name rfemur
     direction -0.34202 -0.939693 0   
     length 7.33006   
     axis 0 0 -20   XYZ
    dof rx ry rz
    limits (-160.0 20.0)
           (-70.0 70.0)
           (-70.0 60.0)
  end
  begin
     id 8 
     name rtibia
     direction -0.34202 -0.939693 0   
     length 7.64926   
     axis 0 0 -20   XYZ
    dof rx
    limits (-10.0 170.0)
 end
 begin
     id 9 
     name rfoot
     direction -0.0688927 -0.189281 0.979503   
     length 2.20493  
     axis -90 -7.62852e-016 -20   XYZ
    dof rx rz
    limits (-45.0 90.0)
           (-20.0 70.0)
  end
  begin
     id 10 
     name rtoes
     direction -1.53567e-011 -4.21933e-011 1   
     length 1.10919   
     axis -90 -7.62852e-016 -20   XYZ
    dof rx
    limits (-90.0 20.0)
  end
  begin
     id 11 
     name lowerback
     direction -0.0167868 0.989873 -0.140959   
     length 2.14596   
     axis 0 0 0   XYZ
    dof rx ry rz
    limits (-20.0 45.0)
           (-30.0 30.0)
           (-30.0 30.0)
  end
  begin
     id 12 
     name upperback
     direction 0.0129109 0.998033 0.0613525   
     length 2.10457   
     axis 0 0 0   XYZ
    dof rx ry rz
    limits (-20.0 45.0)
           (-30.0 30.0)
           (-30.0 30.0)
  end
  begin
     id 13 
     name thorax
     direction 0.0177047 0.991119 0.131797   
     length 2.17652   
     axis 0 0 0   XYZ
    dof rx ry rz
    limits (-20.0 45.0)
           (-30.0 30.0)
           (-30.0 30.0)
  end
  begin
     id 14 
     name lowerneck
     direction -0.0336893 0.997548 0.0613464   
     length 1.8912   
     axis 0 0 0   XYZ
    dof rx ry rz
    limits (-20.0 45.0)
           (-30.0 30.0)
           (-30.0 30.0)
  end
  begin
     id 15 
     name upperneck
     direction 0.0435909 0.997179 -0.0611028   
     length 1.8829   
     axis 0 0 0   XYZ
    dof rx ry rz
    limits (-20.0 45.0)
           (-30.0 30.0)
           (-30.0 30.0)
  end
  begin
     id 16
     name head
     direction 0.0175076 0.999444 -0.0283782  
     length 1.93197  
     axis 0 0 0   XYZ
    dof rx ry rz
    limits (-20.0 45.0)
           (-30.0 30.0)
           (-30.0 30.0)
  end
  begin
     id 17 
     name lclavicle
     direction 0.919164 0.389875 0.0559876  
     length 3.60004  
     axis 0 0 0   XYZ
    dof ry rz
    limits (-20.0 10.0)
           (0.0 20.0)
  end
  begin
     id 18 
     name lhumerus
     direction 1 -4.48958e-011 6.89191e-027   
     length 5.43301   
     axis 180 -30 -90   XYZ
    dof rx ry rz
    limits (-60.0 90.0)
           (-90.0 90.0)
           (-90.0 90.0)
  end
  begin
     id 19
     name lradius
     direction 1 -4.4897e-011 3.24727e-027   
     length 3.15936   
     axis 180 -30 -90   XYZ
    dof rx
    limits (-10.0 170.0)
  end
  begin
     id 20
     name lwrist
     direction 1 -4.4897e-011 9.00228e-027   
     length 1.57968   
     axis -6.29373e-015 90 90   XYZ
    dof ry
    limits (-180.0 0.0)
 end
  begin
     id 21 
     name lhand
     direction 1 -4.48968e-011 1.80042e-026   
     length 0.712827   
     axis -1.14882e-014 90 90   XYZ
    dof rx rz
    limits (-90.0 90.0)
           (-45.0 45.0)
  end
  begin
     id 22 
     name lfingers
     direction 1 -4.49019e-011 3.60267e-026   
     length 0.574699   
     axis -2.29769e-014 90 90   XYZ
    dof rx
    limits (0.0 90.0)
  end
  begin
     id 23
     name lthumb
     direction 0.707107 -6.3498e-011 0.707107   
     length 0.825157   
     axis -90 45 5.37419e-014   XYZ
    dof rx rz
    limits (-45.0 45.0)
           (-45.0 45.0)
  end
  begin
     id 24 
     name rclavicle
     direction -0.890334 0.455305 -0.00132111   
     length 3.51494  
     axis 0 0 0   XYZ 
    dof ry rz
    limits (-10.0 20.0)
           (-20.0 0.0)
  end
  begin
     id 25 
     name rhumerus
     direction -1 -4.48967e-011 5.07175e-028  
     length 5.34194   
     axis 180 30 90   XYZ
    dof rx ry rz
    limits (-90.0 60.0)
           (-90.0 90.0)
           (-90.0 90.0)
  end
  begin
     id 26 
     name rradius
     direction -1 -4.48955e-011 3.30467e-027   
     length 3.19351   
     axis 180 30 90   XYZ
    dof rx
    limits (-10.0 170.0)
  end
  begin
     id 27 
     name rwrist
     direction -1 -4.48968e-011 9.00208e-027   
     length 1.59676   
     axis -6.29373e-015 -90 -90   XYZ
    dof ry
    limits (-180.0 0.0)
  end
  begin
     id 28
     name rhand
     direction -1 -4.49e-011 1.80099e-026   
     length 0.743862   
     axis -1.14882e-014 -90 -90   XYZ
    dof rx rz
    limits (-90.0 90.0)
           (-45.0 45.0)
  end
  begin
     id 29
     name rfingers
     direction -1 -4.49009e-011 3.6023e-026   
     length 0.599721   
     axis -2.29769e-014 -90 -90   XYZ
    dof rx
    limits (0.0 90.0)
  end
  begin
     id 30
     name rthumb
     direction -0.707107 -6.35025e-011 0.707107   
     length 0.861083   
     axis -90 -45 -5.37419e-014   XYZ
    dof rx rz
    limits (-45.0 45.0)
           (-45.0 45.0)
  end
:hierarchy
  begin
    root lhipjoint rhipjoint lowerback
    lhipjoint lfemur
    lfemur ltibia
    ltibia lfoot
    lfoot ltoes
    rhipjoint rfemur
    rfemur rtibia
    rtibia rfoot
    rfoot rtoes
    lowerback upperback
    upperback thorax
    thorax lowerneck lclavicle rclavicle
    lowerneck upperneck
    upperneck head
    lclavicle lhumerus
    lhumerus lradius
    lradius lwrist
    lwrist lhand lthumb
    lhand lfingers
    rclavicle rhumerus
    rhumerus rradius
    rradius rwrist
    rwrist rhand rthumb
    rhand rfingers
  end

#!OML:ASF H:\Martial Arts Walks\Project 1\Capture day 1\Session 1\male.ASF
:FULLY-SPECIFIED
:DEGREES
941
root -1.36712 13.8372 21.7751 21.1156 21.7506 6.89789
lowerback 10.5209 1.93963 -5.92094
upperback -4.80462 1.68102 -0.389771
thorax -11.3288 1.22695 2.56869
lowerneck -1.6381 -10.7524 -10.8991
upperneck -0.220177 -14.2682 9.77216
head 1.6809 -7.08185 4.18601
rclavicle 2.18663e-015 2.94201e-014
rhumerus 44.7997 -2.59596 -45.6083
rradius 29.0935
rwrist 20.0343
rhand -8.6277 -24.58
rfingers 7.12502
rthumb 17.3048 -53.8296
lclavicle 2.18663e-015 2.94201e-014
lhumerus -73.8028 -23.6904 107.148
lradius 99.6959
lwrist 60.1369
lhand -3.5415 46.6262
lfingers 7.12502
lthumb 22.1942 75.372
rfemur -77.1929 -26.2713 25.3978
rtibia 84.7774
rfoot -18.1286 -25.5996
rtoes 3.6676
lfemur 14.9322 -1.3439 -8.2009
ltibia 21.6005
lfoot 3.65739 26.4245
ltoes -25.8133
942
root -1.40672 13.8799 21.9204 21.2296 21.4364 6.44025
lowerback 10.1975 2.05725 -5.88384
upperback -4.81802 1.87629 -0.312313
thorax -11.1697 1.31838 2.59984
lowerneck -1.62806 -10.7408 -10.8675
upperneck -0.304611 -14.2532 9.89764
head 1.66044 -7.07401 4.22214
rclavicle 2.76311e-014 1.27222e-014
rhumerus 44.5653 -2.5114 -45.5659
rradius 29.3545
rwrist 19.8822
rhand -8.64389 -24.58
rfingers 7.12502
rthumb 17.2892 -53.831
lclavicle 2.76311e-014 1.27222e-014
lhumerus -73.6966 -23.7967 107.274
lradius 99.5857
lwrist 59.9619
lhand -3.59175 47.0539
lfingers 7.12502
lthumb 22.1459 75.8055
rfemur -76.5938 -25.7305 25.9825
rtibia 84.3418
rfoot -18.3118 -25.5668
rtoes 2.65691
lfemur 13.0595 -0.901814 -7.68765
ltibia 24.7984
lfoot 5.30596 26.3287
ltoes -23.7054
943
root -1.44682 13.9242 22.0653 21.2494 21.1408 5.93406
lowerback 9.95741 2.1743 -5.80104
upperback -4.80967 2.07218 -0.227634
thorax -11.0344 1.40719 2.61256
lowerneck -1.65807 -10.7224 -10.8558
upperneck -0.325753 -14.2288 10.0443
head 1.66727 -7.06024 4.26354
rclavicle 3.37934e-014 1.27222e-014
rhumerus 44.3363 -2.42158 -45.5452
rradius 29.605
rwrist 19.7247
rhand -8.71974 -24.5868
rfingers 7.12502
rthumb 17.2162 -53.8442
lclavicle 3.37934e-014 1.27222e-014
lhumerus -73.6072 -23.8946 107.417
lradius 99.5247
lwrist 59.6373
lhand -3.64692 47.7097
lfingers 7.12502
lthumb 22.093 76.4676
rfemur -75.8508 -25.177 26.5586
rtibia 83.8727
rfoot -18.5457 -25.5798
rtoes 1.75229
lfemur 11.1053 -0.499725 -7.13556
ltibia 28.1897
lfoot 7.39404 26.0101
ltoes -21.2309
944
root -1.4858 13.9697 22.2095 21.1262 20.8882 5.40836
lowerback 9.85673 2.28401 -5.66731
upperback -4.75893 2.25628 -0.13988
thorax -10.9315 1.48644 2.60012
lowerneck -1.67767 -10.7057 -10.8349
upperneck -0.348173 -14.2079 10.1958
head 1.67213 -7.04847 4.30548
rclavicle 2.76311e-014 4.6118e-014
rhumerus 44.1225 -2.33406 -45.5474
rradius 29.8352
rwrist 19.5636
rhand -8.8689 -24.5915
rfingers 7.12502
rthumb 17.0726 -53.8614
lclavicle 2.76311e-014 4.6118e-014
lhumerus -73.5281 -23.9952 107.586
lradius 99.5047
lwrist 59.1452
lhand -3.65968 48.258
lfingers 7.12502
lthumb 22.0807 77.0173
rfemur -74.9066 -24.678 27.0797
rtibia 83.3832
rfoot -18.8333 -25.6127
rtoes 0.874933
lfemur 9.13346 -0.222217 -6.58752
ltibia 31.7619
lfoot 9.99348 25.1494
ltoes -18.4785
945
root -1.52277 14.0154 22.352 20.8235 20.6808 4.87136
lowerback 9.9423 2.38763 -5.47916
upperback -4.65993 2.42805 -0.0507938
thorax -10.8816 1.55567 2.55648
lowerneck -1.69044 -10.69 -10.8004
upperneck -0.358681 -14.1898 10.3396
head 1.67817 -7.03829 4.34311
rclavicle 2.46493e-014 -1.11319e-014
rhumerus 43.9242 -2.24346 -45.5604
rradius 30.0387
rwrist 19.3908
rhand -9.07313 -24.5944
rfingers 7.12502
rthumb 16.876 -53.8811
lclavicle 2.46493e-014 -1.11319e-014
lhumerus -73.4674 -24.1031 107.787
lradius 99.5331
lwrist 58.494
lhand -3.67078 48.5805
lfingers 7.12502
lthumb 22.0701 77.3411
rfemur -73.7288 -24.2532 27.5231
rtibia 82.8807
rfoot -19.1765 -25.6374
rtoes 0.0401614
lfemur 7.18258 -0.10908 -6.06996
ltibia 35.514
lfoot 13.0136 23.2705
ltoes -15.7976
946
root -1.55646 14.0605 22.4915 20.3177 20.5248 4.335
lowerback 10.2529 2.48302 -5.22795
upperback -4.50776 2.58479 0.0389609
thorax -10.901 1.61296 2.4744
lowerneck -1.68039 -10.6748 -10.7538
upperneck -0.37625 -14.1741 10.4762
head 1.67728 -7.03003 4.3783
rclavicle 4.19436e-014 -3.97569e-015
rhumerus 43.7448 -2.14076 -45.5587
rradius 30.2197
rwrist 19.1943
rhand -9.31935 -24.6128
rfingers 7.12502
rthumb 16.639 -53.9196
lclavicle 4.19436e-014 -3.97569e-015
lhumerus -73.4187 -24.2208 108.031
lradius 99.6025
lwrist 57.7015
lhand -3.73565 48.3718
lfingers 7.12502
lthumb 22.0078 77.1397
rfemur -72.3014 -23.9315 27.8703
rtibia 82.3749
rfoot -19.5761 -25.6317
rtoes -0.783665
lfemur 5.27917 -0.188097 -5.61969
ltibia 39.4499
lfoot 16.0439 19.9589
ltoes -13.7362
947
root -1.58598 14.1037 22.6281 19.6143 20.4003 3.8053
lowerback 10.7785 2.57158 -4.92486
upperback -4.30487 2.72978 0.129568
thorax -10.9868 1.66056 2.35897
lowerneck -1.64499 -10.6602 -10.6898
upperneck -0.402121 -14.1609 10.5941
head 1.66744 -7.0239 4.4071
rclavicle 7.95139e-016 1.27222e-014
rhumerus 43.5895 -2.02363 -45.5377
rradius 30.3849
rwrist 18.9761
rhand -9.56211 -24.6319
rfingers 7.12502
rthumb 16.4053 -53.9582
lclavicle 7.95139e-016 1.27222e-014
lhumerus -73.3711 -24.3436 108.316
lradius 99.7056
lwrist 56.7893
lhand -3.90055 47.7549
lfingers 7.12502
lthumb 21.8495 76.5414
rfemur -70.6399 -23.6982 28.1097
rtibia 81.8737
rfoot -20.0308 -25.5955
rtoes -1.58948
lfemur 3.42121 -0.425252 -5.27281
ltibia 43.5845
lfoot 18.3896 15.1698
ltoes -12.5609
948
root -1.61093 14.1439 22.7617 18.759 20.2818 3.26636
lowerback 11.4638 2.65706 -4.56726
upperback -4.066 2.87478 0.225021
thorax -11.123 1.70411 2.21147
lowerneck -1.60039 -10.6473 -10.6197
upperneck -0.422985 -14.1506 10.6972
head 1.65633 -7.01962 4.43094
rclavicle 1.31198e-014 7.95139e-015
rhumerus 43.4531 -1.89446 -45.4906
rradius 30.5555
rwrist 18.7405
rhand -9.78062 -24.6547
rfingers 7.12502
rthumb 16.1949 -53.9982
lclavicle 1.31198e-014 7.95139e-015
lhumerus -73.3096 -24.4664 108.639
lradius 99.841
lwrist 55.7715
lhand -4.20769 46.9124
lfingers 7.12502
lthumb 21.5545 75.7329
rfemur -68.8088 -23.5062 28.2716
rtibia 81.3789
rfoot -20.5138 -25.5514
rtoes -2.41274
lfemur 1.56192 -0.744574 -5.03818
ltibia 47.9262
lfoot 19.3987 9.54202
ltoes -12.1641
